{"title":"The League Cup Show 24.09.2014 R3 webrip X264 ","uid":11098293,"size":767311034,"categoryP":"video","categoryS":"tv_shows","magnet":"?xt=urn:btih:0361ec41ad68e3f96574d47ab6c68a82332644f7&amp;dn=The+League+Cup+Show+24.09.2014+R3+webrip+X264+&amp;tr=udp%3A%2F%2Ftracker.openbittorrent.com%3A80&amp;tr=udp%3A%2F%2Fopen.demonii.com%3A1337&amp;tr=udp%3A%2F%2Ftracker.coppersurfer.tk%3A6969&amp;tr=udp%3A%2F%2Fexodus.desync.com%3A6969","seeders":1,"leechers":0,"uploader":"rugbybill","files":2,"time":1411625200,"description":"The League Cup Show\nWednesday 24th September 2014 \n\nAs the League Cup reaches the last 16, Round 3, the featured match sees the 2013 Cup winners welcome former manager Roberto Martinez back to the Liberty as Swansea take on Everton. Plus extended highlights from White Hart Lane, as Tottenham meet Stuart Pearce's Nottingham Forest and Liverpool go head-to-head with Middlesbrough.\n\nA 720p version will follow later in the fullness of time.\n\n\nGeneral\nComplete name                            : 2014.09.24.The.League.Cup.Show.R3.webrip.x264.mp4\nFormat                                   : MPEG-4\nFormat profile                           : Base Media\nCodec ID                                 : isom\nFile size                                : 732 MiB\nDuration                                 : 1h 9mn\nOverall bit rate mode                    : Variable\nOverall bit rate                         : 1 481 Kbps\n\nVideo\nID                                       : 1\nFormat                                   : AVC\nFormat/Info                              : Advanced Video Codec\nFormat profile                           : &lt;a class=&quot;__cf_email__&quot; href=&quot;/cdn-cgi/l/email-protection&quot; data-cfemail=&quot;135e727a7d535f203d22&quot;&gt;[email&amp;#160;protected]&lt;/a&gt;&lt;script data-cfhash='f9e31' type=&quot;text/javascript&quot;&gt;\n/* &lt;![CDATA[ */!function(){try{var t=&quot;currentScript&quot;in document?document.currentScript:function(){for(var t=document.getElementsByTagName(&quot;script&quot;),e=t.length;e--;)if(t[e].getAttribute(&quot;data-cfhash&quot;))return t[e]}();if(t&amp;&amp;t.previousSibling){var e,r,n,i,c=t.previousSibling,a=c.getAttribute(&quot;data-cfemail&quot;);if(a){for(e=&quot;&quot;,r=parseInt(a.substr(0,2),16),n=2;a.length-n;n+=2)i=parseInt(a.substr(n,2),16)^r,e+=String.fromCharCode(i);e=document.createTextNode(e),c.parentNode.replaceChild(e,c)}t.parentNode.removeChild(t);}}catch(u){}}()/* ]]&gt; */&lt;/script&gt;\nFormat settings, CABAC                   : Yes\nFormat settings, ReFrames                : 2 frames\nCodec ID                                 : avc1\nCodec ID/Info                            : Advanced Video Coding\nDuration                                 : 1h 9mn\nBit rate mode                            : Constant\nBit rate                                 : 1 404 Kbps\nMaximum bit rate                         : 2 175 Kbps\nWidth                                    : 832 pixels\nHeight                                   : 468 pixels\nDisplay aspect ratio                     : 16:9\nFrame rate mode                          : Constant\nFrame rate                               : 25.000 fps\nColor space                              : YUV\nChroma subsampling                       : 4:2:0\nBit depth                                : 8 bits\nScan type                                : Progressive\nBits/(Pixel*Frame)                       : 0.144\nStream size                              : 684 MiB (93%)\n\nAudio\nID                                       : 2\nFormat                                   : AAC\nFormat/Info                              : Advanced Audio Codec\nFormat profile                           : LC\nCodec ID                                 : 40\nDuration                                 : 1h 9mn\nBit rate mode                            : Variable\nBit rate                                 : 93.5 Kbps\nMaximum bit rate                         : 104 Kbps\nChannel(s)                               : 2 channels\nChannel positions                        : Front: L R\nSampling rate                            : 48.0 KHz\nCompression mode                         : Lossy\nStream size                              : 46.2 MiB (6%)\n","torrent":{"xt":"urn:btih:0361ec41ad68e3f96574d47ab6c68a82332644f7","amp;dn":"The+League+Cup+Show+24.09.2014+R3+webrip+X264+","amp;tr":["udp%3A%2F%2Ftracker.openbittorrent.com%3A80","udp%3A%2F%2Fopen.demonii.com%3A1337","udp%3A%2F%2Ftracker.coppersurfer.tk%3A6969","udp%3A%2F%2Fexodus.desync.com%3A6969"],"infoHash":"0361ec41ad68e3f96574d47ab6c68a82332644f7","infoHashBuffer":{"type":"Buffer","data":[3,97,236,65,173,104,227,249,101,116,212,122,182,198,138,130,51,38,68,247]},"announce":[],"urlList":[]}}